<svg width="16" height="16" viewBox="0 0 16 16" fill="none" xmlns="http://www.w3.org/2000/svg">
<path fill-rule="evenodd" clip-rule="evenodd" d="M4.22232 2.34602C5.34057 1.59883 6.65528 1.20001 8.0002 1.20001C9.80307 1.20196 11.5315 1.91901 12.8064 3.19384C14.0812 4.46866 14.7982 6.19714 14.8002 8.00001C14.8002 9.34492 14.4014 10.6596 13.6542 11.7779C12.907 12.8961 11.845 13.7677 10.6024 14.2824C9.35991 14.7971 7.99265 14.9317 6.67358 14.6693C5.35451 14.407 4.14287 13.7593 3.19187 12.8083C2.24087 11.8573 1.59324 10.6457 1.33086 9.32662C1.06848 8.00755 1.20314 6.6403 1.71782 5.39776C2.23249 4.15523 3.10407 3.09321 4.22232 2.34602ZM4.85197 12.7117C5.78384 13.3343 6.87944 13.6667 8.0002 13.6667C9.50258 13.665 10.943 13.0675 12.0053 12.0051C13.0677 10.9428 13.6652 9.5024 13.6669 8.00001C13.6669 6.87925 13.3345 5.78366 12.7119 4.85178C12.0892 3.9199 11.2042 3.19359 10.1687 2.76469C9.13329 2.3358 7.99391 2.22358 6.89469 2.44223C5.79546 2.66088 4.78576 3.20058 3.99326 3.99307C3.20076 4.78557 2.66106 5.79527 2.44241 6.8945C2.22377 7.99373 2.33598 9.1331 2.76488 10.1686C3.19378 11.204 3.92009 12.089 4.85197 12.7117ZM9.51276 5.68627C9.70802 5.49101 10.0246 5.49101 10.2199 5.68627L10.314 5.78043C10.5093 5.97569 10.5093 6.29228 10.314 6.48754L8.80155 8.00002L10.314 9.51249C10.5093 9.70776 10.5093 10.0243 10.314 10.2196L10.2199 10.3138C10.0246 10.509 9.70802 10.509 9.51276 10.3138L8.00028 8.80128L6.48781 10.3138C6.29254 10.509 5.97596 10.509 5.7807 10.3138L5.68654 10.2196C5.49128 10.0243 5.49128 9.70776 5.68654 9.51249L7.19902 8.00002L5.68654 6.48754C5.49128 6.29228 5.49128 5.97569 5.68654 5.78043L5.7807 5.68627C5.97596 5.49101 6.29254 5.49101 6.48781 5.68627L8.00028 7.19875L9.51276 5.68627Z" fill="#BCBCBC"/>
</svg>
