<svg width="16" height="17" viewBox="0 0 16 17" fill="none" xmlns="http://www.w3.org/2000/svg">
<path fill-rule="evenodd" clip-rule="evenodd" d="M12.655 12.9805L3.34314 12.9805C3.067 12.9805 2.84314 12.7566 2.84314 12.4805L2.84314 12.1205C2.84314 11.8443 3.067 11.6205 3.34314 11.6205L12.655 11.6205C12.9312 11.6205 13.155 11.8443 13.155 12.1205L13.155 12.4805C13.155 12.7566 12.9312 12.9805 12.655 12.9805ZM8.08483 7.93395C8.03796 7.98082 7.96198 7.98082 7.91512 7.93395L4.03436 4.05319C3.8391 3.85793 3.52252 3.85793 3.32725 4.05319L3.0727 4.30775C2.87743 4.50301 2.87743 4.81959 3.0727 5.01486L6.95346 8.89562C7.53143 9.47359 8.46852 9.47359 9.04649 8.89562L12.9273 5.01486C13.1225 4.8196 13.1225 4.50301 12.9273 4.30775L12.6727 4.05319C12.4774 3.85793 12.1609 3.85793 11.9656 4.05319L8.08483 7.93395Z" fill="white"/>
</svg>
