<svg width="20" height="20" viewBox="0 0 20 20" fill="none" xmlns="http://www.w3.org/2000/svg">
<path fill-rule="evenodd" clip-rule="evenodd" d="M12.25 2.90198C12.25 2.62584 12.0261 2.40198 11.75 2.40198H8.25C7.97386 2.40198 7.75 2.62584 7.75 2.90198V3.99976H12.25V2.90198ZM13.75 3.99976V2.5C13.75 1.67157 13.0784 1 12.25 1H7.75C6.92157 1 6.25 1.67157 6.25 2.5V3.99976H3.22021V4.00003H2.25C1.97386 4.00003 1.75 4.22389 1.75 4.50003V4.83175C1.75 5.10789 1.97386 5.33175 2.25 5.33175H3.22021V16.4998C3.22021 17.8805 4.3395 18.9998 5.72021 18.9998H14.2202C15.6009 18.9998 16.7202 17.8805 16.7202 16.4998V5.33175H17.75C18.0261 5.33175 18.25 5.10789 18.25 4.83175V4.50003C18.25 4.22389 18.0261 4.00003 17.75 4.00003H16.7202V3.99976H13.75ZM7.75049 14C7.75049 14.2762 7.97435 14.5 8.25049 14.5H8.75049C9.02663 14.5 9.25049 14.2762 9.25049 14L9.25049 9.00003C9.25049 8.72389 9.02663 8.50003 8.75049 8.50003H8.25049C7.97435 8.50003 7.75049 8.72389 7.75049 9.00003L7.75049 14ZM11.25 14.5C10.9739 14.5 10.75 14.2762 10.75 14V9.00003C10.75 8.72389 10.9739 8.50003 11.25 8.50003H11.75C12.0261 8.50003 12.25 8.72389 12.25 9.00003V14C12.25 14.2762 12.0261 14.5 11.75 14.5H11.25ZM4.62021 5.39976H15.3202V16.5998C15.3202 17.152 14.8725 17.5998 14.3202 17.5998H5.62021C5.06793 17.5998 4.62021 17.152 4.62021 16.5998V5.39976Z" fill="white"/>
</svg>
