<svg width="14" height="14" viewBox="0 0 14 14" fill="none" xmlns="http://www.w3.org/2000/svg">
<path fill-rule="evenodd" clip-rule="evenodd" d="M7 13.8C5.65509 13.8 4.34038 13.4011 3.22212 12.6539C2.10387 11.9068 1.2323 10.8447 0.717619 9.6022C0.202943 8.35966 0.0682806 6.99241 0.33066 5.67334C0.59304 4.35427 1.24068 3.14263 2.19167 2.19163C3.14267 1.24063 4.35432 0.592994 5.67339 0.330614C6.99246 0.0682348 8.35971 0.202898 9.60225 0.717573C10.8448 1.23225 11.9068 2.10382 12.654 3.22208C13.4012 4.34033 13.8 5.65504 13.8 6.99996C13.7981 8.80283 13.081 10.5313 11.8062 11.8061C10.5313 13.081 8.80287 13.798 7 13.8ZM7 1.33329C5.87924 1.33329 4.78365 1.66563 3.85177 2.28829C2.91989 2.91095 2.19358 3.79597 1.76468 4.83142C1.33579 5.86686 1.22357 7.00624 1.44222 8.10547C1.66087 9.20469 2.20056 10.2144 2.99306 11.0069C3.78556 11.7994 4.79526 12.3391 5.89449 12.5577C6.99371 12.7764 8.13309 12.6642 9.16854 12.2353C10.204 11.8064 11.089 11.0801 11.7117 10.1482C12.3343 9.21631 12.6667 8.12072 12.6667 6.99996C12.665 5.49757 12.0675 4.05719 11.0051 2.99484C9.94277 1.93249 8.50239 1.33494 7 1.33329ZM8.13296 10.4668C8.13296 10.7429 7.9091 10.9668 7.63296 10.9668H7.49963C7.22348 10.9668 6.99963 10.7429 6.99963 10.4668V7.50014C6.99963 7.22399 6.77577 7.00014 6.49963 7.00014H6.36629C6.09015 7.00014 5.86629 6.77628 5.86629 6.50014V6.3668C5.86629 6.09066 6.09015 5.8668 6.36629 5.8668H6.99963C7.3002 5.8668 7.58847 5.98621 7.80101 6.19875C8.01355 6.41129 8.13296 6.69956 8.13296 7.00014V10.4668ZM7.85 3.8831C7.85 4.35254 7.46944 4.7331 7 4.7331C6.53056 4.7331 6.15 4.35254 6.15 3.8831C6.15 3.41366 6.53056 3.0331 7 3.0331C7.46944 3.0331 7.85 3.41366 7.85 3.8831Z" fill="#6BB2FA"/>
</svg>
