<svg width="8" height="9" viewBox="0 0 8 9" fill="none" xmlns="http://www.w3.org/2000/svg">
<path d="M4.66667 3.83333V1C4.66667 0.723857 4.44281 0.5 4.16667 0.5H3.83333C3.55719 0.5 3.33333 0.723858 3.33333 1V3.83333H0.5C0.223857 3.83333 0 4.05719 0 4.33333V4.66667C0 4.94281 0.223858 5.16667 0.5 5.16667H3.33333V8C3.33333 8.27614 3.55719 8.5 3.83333 8.5H4.16667C4.44281 8.5 4.66667 8.27614 4.66667 8V5.16667H7.5C7.77614 5.16667 8 4.94281 8 4.66667V4.33333C8 4.05719 7.77614 3.83333 7.5 3.83333H4.66667Z" fill="#6BB2FA"/>
</svg>
